PathFileType	4	(X/Y/Z)	1H_rest_med_right.trc
DataRate	CameraRate	NumFrames	NumMarkers	Units	OrigDataRate	OrigDataStartFrame	OrigNumFrames
250.00	250.00	10	18	mm	250.00	25621	29281
Frame#	Time	c7	r_should	l_should	clavicle	r_upa	r_elb_l	r_elb_m	r_low	r_wri_l	r_wri_m	r_met	l_upa	l_elb_l	l_elb_m	l_low	l_wri_l	l_wri_m	l_met
	X1	Y1	Z1	X2	Y2	Z2	X3	Y3	Z3	X4	Y4	Z4	X5	Y5	Z5	X6	Y6	Z6	X7	Y7	Z7	X8	Y8	Z8	X9	Y9	Z9	X10	Y10	Z10	X11	Y11	Z11	X12	Y12	Z12	X13	Y13	Z13	X14	Y14	Z14	X15	Y15	Z15	X16	Y16	Z16	X17	Y17	Z17	X18	Y18	Z18
25621	102.48000	594.25073	1417.27112	275.39343	647.52722	1363.04968	415.46542	637.66858	1376.37891	100.46585	734.61237	1290.68567	251.99074	695.59375	1176.35205	494.23425	699.90302	1107.86609	515.86237	739.12531	1062.78821	431.07971	784.56879	1209.21570	496.06104	799.51819	1271.16541	469.74664	859.68439	1234.64832	443.92001	854.92053	1345.44543	482.89075	644.42279	1186.50647	24.14277	663.58752	1078.73438	14.25426	611.43707	1039.54053	75.46516	711.03723	915.78162	19.56407	740.18048	844.38831	55.74139	678.73718	821.47052	22.56992	775.52368	759.47357	30.41733
25622	102.48400	594.25732	1417.26831	275.37982	647.51166	1363.04041	415.45807	637.69415	1376.37280	100.45351	734.62500	1290.67908	251.99580	695.58063	1176.34277	494.24207	699.86481	1107.84338	515.84949	739.08752	1062.76611	431.05103	784.54675	1209.21118	496.07343	799.49548	1271.13940	469.73386	859.67554	1234.62280	443.92789	854.90070	1345.41296	482.89804	644.47076	1186.48389	24.16028	663.62976	1078.71143	14.29411	611.48303	1039.53394	75.51353	711.08630	915.76526	19.62038	740.24768	844.36133	55.87053	678.78534	821.45941	22.65311	775.56134	759.45203	30.49979
25623	102.48800	594.26855	1417.26831	275.37173	647.50598	1363.02942	415.45169	637.72406	1376.37170	100.44658	734.64008	1290.67419	252.00313	695.59753	1176.36365	494.27142	699.84564	1107.84692	515.86401	739.04480	1062.73987	431.02142	784.53522	1209.23401	496.11548	799.47455	1271.11768	469.72751	859.66669	1234.59424	443.94382	854.88599	1345.37842	482.90921	644.52539	1186.46436	24.17896	663.68213	1078.68909	14.33138	611.55151	1039.53809	75.56979	711.14221	915.74908	19.67508	740.33124	844.37592	55.98273	678.85065	821.46399	22.75921	775.61139	759.43634	30.58477
25624	102.49200	594.28467	1417.27539	275.37018	647.50983	1363.02112	415.45074	637.76489	1376.37109	100.43997	734.65930	1290.67322	252.00494	695.61340	1176.39685	494.30902	699.84167	1107.86829	515.88538	739.01862	1062.72168	430.99332	784.52832	1209.25061	496.15430	799.46143	1271.09155	469.73233	859.65906	1234.56763	443.96820	854.86475	1345.34570	482.92383	644.58527	1186.45886	24.19305	663.74207	1078.67627	14.36390	611.63940	1039.54651	75.61700	711.20331	915.74036	19.72691	740.42511	844.40057	56.08612	678.92645	821.48169	22.85674	775.66852	759.42847	30.67177
25625	102.49600	594.30231	1417.28467	275.36816	647.51483	1363.01709	415.44754	637.81415	1376.37634	100.43074	734.68091	1290.67725	252.01003	695.61096	1176.41516	494.32120	699.83746	1107.88696	515.88928	738.99091	1062.70605	430.97052	784.51770	1209.25879	496.18051	799.45148	1271.07324	469.73566	859.65186	1234.54053	443.99344	854.84430	1345.31494	482.95108	644.64819	1186.45935	24.20123	663.81537	1078.67505	14.39255	611.72375	1039.56128	75.63982	711.26294	915.73590	19.78120	740.50360	844.41913	56.16537	679.00385	821.49530	22.92803	775.73480	759.42780	30.75281
25626	102.50000	594.31860	1417.29504	275.36459	647.52600	1363.01831	415.44177	637.85590	1376.38831	100.42130	734.70276	1290.68750	252.01297	695.57880	1176.40247	494.29791	699.81287	1107.87317	515.85291	738.98303	1062.69958	430.94766	784.49194	1209.23486	496.16687	799.43799	1271.05603	469.74103	859.64465	1234.51538	444.02197	854.82562	1345.28625	482.98096	644.71289	1186.46265	24.20474	663.88641	1078.67285	14.41355	611.78394	1039.57080	75.64691	711.32788	915.73083	19.83481	740.55597	844.41748	56.21886	679.07434	821.49390	22.98339	775.80426	759.43286	30.82967
25627	102.50400	594.33569	1417.30493	275.36490	647.53967	1363.01733	415.43881	637.89337	1376.39575	100.41502	734.72461	1290.69775	252.00697	695.52576	1176.34778	494.24530	699.77460	1107.83459	515.79926	738.97815	1062.69629	430.93045	784.45648	1209.17834	496.12772	799.42542	1271.03845	469.75095	859.64062	1234.49255	444.04984	854.81927	1345.25854	483.00742	644.77228	1186.46094	24.20877	663.94482	1078.67358	14.43467	611.80450	1039.56116	75.64016	711.39282	915.72461	19.88879	740.58313	844.38989	56.25750	679.12543	821.47400	23.02003	775.87292	759.43561	30.90796
25628	102.50800	594.34882	1417.30408	275.36496	647.54590	1363.01111	415.44040	637.92841	1376.39441	100.41365	734.74561	1290.69971	252.01321	695.45154	1176.27283	494.17813	699.72693	1107.78271	515.75305	738.95898	1062.69055	430.92197	784.41626	1209.09973	496.07892	799.41913	1271.01868	469.76263	859.63196	1234.46680	444.06976	854.81500	1345.22729	483.03049	644.82007	1186.45862	24.22166	663.99860	1078.67151	14.46371	611.81311	1039.53406	75.63342	711.45020	915.72125	19.93766	740.60114	844.35687	56.29316	679.16986	821.44257	23.05290	775.94135	759.43494	30.99089
25629	102.51200	594.35571	1417.29565	275.35187	647.53949	1363.00024	415.44397	637.95734	1376.38721	100.41021	734.75775	1290.69824	252.02066	695.38654	1176.20862	494.13229	699.67883	1107.73987	515.71783	738.94653	1062.68616	430.90924	784.37714	1209.03223	496.04028	799.41071	1270.99353	469.76376	859.62286	1234.44568	444.08676	854.81268	1345.20300	483.05609	644.86273	1186.45178	24.23309	664.05212	1078.65918	14.48790	611.82513	1039.50317	75.64343	711.51093	915.71777	19.97995	740.63507	844.33954	56.33560	679.21698	821.41370	23.09431	776.00800	759.43359	31.06456
25630	102.51600	594.36267	1417.28845	275.33594	647.52985	1362.98865	415.44287	637.97632	1376.38379	100.40381	734.76971	1290.69922	252.02719	695.34552	1176.18567	494.12112	699.64093	1107.71619	515.71106	738.92987	1062.67981	430.90091	784.35297	1209.01233	496.03308	799.39447	1270.97534	469.76025	859.61279	1234.43164	444.09512	854.80652	1345.18872	483.07593	644.89673	1186.43958	24.24589	664.09772	1078.64587	14.51244	611.85931	1039.48450	75.65708	711.57074	915.71472	20.02559	740.69086	844.34033	56.39363	679.27527	821.40186	23.14903	776.07251	759.43628	31.13623
